<mxfile host="65bd71144e">
    <diagram id="n3tF0IrpQqxN9zshC7B5" name="Page-1">
        <mxGraphModel dx="883" dy="617" grid="1" gridSize="10" guides="1" tooltips="1" connect="1" arrows="1" fold="1" page="1" pageScale="1" pageWidth="850" pageHeight="1100" math="0" shadow="0">
            <root>
                <mxCell id="0"/>
                <mxCell id="1" parent="0"/>
                <mxCell id="5" style="edgeStyle=none;html=1;strokeWidth=7;sketch=1;curved=1;" edge="1" parent="1" source="2" target="4">
                    <mxGeometry relative="1" as="geometry"/>
                </mxCell>
                <mxCell id="2" value="user&lt;br&gt;" style="rounded=0;whiteSpace=wrap;html=1;sketch=1;" vertex="1" parent="1">
                    <mxGeometry x="40" y="120" width="120" height="60" as="geometry"/>
                </mxCell>
                <mxCell id="4" value="email&lt;br&gt;" style="ellipse;whiteSpace=wrap;html=1;aspect=fixed;strokeWidth=0;sketch=1;" vertex="1" parent="1">
                    <mxGeometry x="300" y="30" width="80" height="80" as="geometry"/>
                </mxCell>
                <mxCell id="7" style="edgeStyle=none;html=1;strokeWidth=7;sketch=1;curved=1;" edge="1" parent="1" source="6" target="2">
                    <mxGeometry relative="1" as="geometry"/>
                </mxCell>
                <mxCell id="6" value="password" style="triangle;whiteSpace=wrap;html=1;strokeWidth=0;direction=north;sketch=1;" vertex="1" parent="1">
                    <mxGeometry x="90" y="350" width="110" height="90" as="geometry"/>
                </mxCell>
            </root>
        </mxGraphModel>
    </diagram>
</mxfile>